<?xml version="1.0" encoding="UTF-8"?>
<svg id="Layer_1" data-name="Layer 1" xmlns="http://www.w3.org/2000/svg" viewBox="0 0 1206 314">
  <defs>
    <style>
      .cls-1 {
        fill: #000;
      }

      .cls-1, .cls-2 {
        stroke-width: 0px;
      }

      .cls-2 {
        fill: #fff;
      }
    </style>
  </defs>
  <rect class="cls-2" width="1206" height="314"/>
  <g>
    <path class="cls-1" d="M1158.49,83.91c0,2.32-.35,4.46-1.63,6.15-1.2,1.62-3.06,2.66-5.44,2.66-2.79,0-4.93-1.1-4.93-3.65,0-4.58,5.16-5.16,8.64-5.16h3.36ZM1166.03,97.71c-.18-2.32-.29-4.41-.35-6.67-.06-2.2-.12-4.46-.12-7.47v-3.83c0-8.81-3.77-12.58-12.86-12.58-3.32,0-7.37.87-10.38,2.27l.22,6.66c2.62-1.97,5.92-3.24,9.22-3.24,4.58,0,6.72,1.62,6.72,6.44h-4.29c-3.25,0-7.07.28-10.04,1.74-2.94,1.44-5.1,4.05-5.1,8.51,0,5.68,5.17,8.88,10.44,8.88,3.54,0,7.42-1.86,9.21-5.17h.12c.07.93.07,2.9.35,4.47h6.84Z"/>
    <rect class="cls-1" x="1125.18" y="67.86" width="7.75" height="29.85"/>
    <rect class="cls-1" x="1125.18" y="54.99" width="7.75" height="7.42"/>
    <rect class="cls-1" x="1109.19" y="54.24" width="7.77" height="43.46"/>
    <path class="cls-1" d="M1094.42,83.91c0,2.32-.35,4.46-1.62,6.15-1.21,1.62-3.07,2.66-5.45,2.66-2.78,0-4.93-1.1-4.93-3.65,0-4.58,5.16-5.16,8.64-5.16h3.36ZM1101.95,97.71c-.16-2.32-.29-4.41-.35-6.67-.06-2.2-.11-4.46-.11-7.47v-3.83c0-8.81-3.77-12.58-12.88-12.58-3.3,0-7.35.87-10.37,2.27l.23,6.66c2.61-1.97,5.92-3.24,9.22-3.24,4.58,0,6.72,1.62,6.72,6.44h-4.29c-3.25,0-7.07.28-10.03,1.74-2.95,1.44-5.1,4.05-5.1,8.51,0,5.68,5.16,8.88,10.44,8.88,3.53,0,7.41-1.86,9.21-5.17h.11c.06.93.06,2.9.35,4.47h6.84Z"/>
    <path class="cls-1" d="M1068.76,74.58c1.39,0,2.78.23,3.48.64v-7.83c-.82-.23-1.62-.23-2.37-.23-4.65,0-7.82,4.7-8.17,7.47h-.12v-6.78h-6.89v29.86h7.75v-10.95c0-4.29,0-12.18,6.32-12.18"/>
    <path class="cls-1" d="M1044.08,98.4c2.32,0,4.11-.23,5.74-.7l-.23-6.14c-.82.52-2.14.81-3.54.81-2.95,0-3.65-2.37-3.65-4.92v-13.91h6.9v-5.68h-6.9v-8.46l-7.77,2.49v5.97h-5.74v5.68h5.74v15.19c0,5.91,3.37,9.67,9.45,9.67"/>
    <path class="cls-1" d="M1012.67,76.15c0-2.55,2.49-3.3,4.58-3.3,2.84,0,4.58.46,6.95,1.27l.52-5.85c-2.44-.52-4.81-1.1-8.46-1.1-6.07,0-11.7,2.83-11.7,9.28,0,10.78,13.5,6.77,13.5,12.62,0,2.9-3.12,3.65-5.09,3.65-2.67,0-5.22-.75-7.66-1.97l-.46,6.38c2.84.75,5.85,1.28,8.81,1.28,6.32,0,12.53-2.79,12.53-9.74,0-10.78-13.51-7.77-13.51-12.52"/>
    <path class="cls-1" d="M991.25,97.71h7.35v-29.85h-7.75v14.6c0,3.83-1.22,9.91-6.84,9.91-4.99,0-5.04-4.94-5.04-8.58v-15.94h-7.77v18.84c0,6.72,3.07,11.71,10.15,11.71,4.05,0,7.41-1.86,9.78-4.76h.12v4.06Z"/>
    <path class="cls-1" d="M952.09,82.06h-11.83l5.85-16.69h.12l5.86,16.69ZM966.81,97.71l-15.88-40.45h-9.16l-15.76,40.45h8.4l3.54-9.27h16.4l3.48,9.27h8.98Z"/>
    <path class="cls-1" d="M897.87,97.71h7.76v-18.83c0-6.73-3.07-11.71-10.14-11.71-4.05,0-7.42,1.85-9.39,4.75h-.12v-17.67h-7.75v43.46h7.75v-14.61c0-3.82,1.23-9.91,6.84-9.91,4.99,0,5.05,4.93,5.05,8.57v15.95Z"/>
    <path class="cls-1" d="M867.79,98.4c2.33,0,4.12-.23,5.75-.7l-.24-6.14c-.81.52-2.14.81-3.54.81-2.95,0-3.65-2.37-3.65-4.92v-13.91h6.89v-5.68h-6.89v-8.46l-7.76,2.49v5.97h-5.74v5.68h5.74v15.19c0,5.91,3.36,9.67,9.44,9.67"/>
    <path class="cls-1" d="M840.57,97.71h7.36v-29.85h-7.76v14.6c0,3.83-1.23,9.91-6.84,9.91-4.99,0-5.05-4.94-5.05-8.58v-15.94h-7.76v18.84c0,6.72,3.07,11.71,10.15,11.71,4.05,0,7.41-1.86,9.79-4.76h.12v4.06Z"/>
    <path class="cls-1" d="M806.45,82.05c0,4.99-1.57,10.32-7.54,10.32s-7.47-5.38-7.47-10.32c0-4.46,2.44-8.86,7.47-8.86s7.54,4.28,7.54,8.86M814.56,82.98c0-9.85-6.77-15.82-15.65-15.82s-15.59,5.97-15.59,15.82c0,8.58,5.74,15.42,15.59,15.42s15.65-6.84,15.65-15.42"/>
    <path class="cls-1" d="M760.97,68.55c0-4.41,3.58-5.63,6.37-5.63s5.69.64,8.23,1.75l.76-6.67c-2.95-.99-6.21-1.46-9.68-1.46-7.13,0-14.14,3.31-14.14,12.35,0,13.39,17.74,10.2,17.74,17.91,0,3.65-4.11,5.22-7.19,5.22s-6.37-.98-9.16-2.49l-.75,7.3c4,.99,5.96,1.57,10.37,1.57,8.17,0,15.18-3.36,15.18-12.23,0-13.56-17.73-10.61-17.73-17.62"/>
    <path class="cls-1" d="M732.12,60.61l.64-6.44c-1.51-.35-3.71-.63-5.68-.63-6.14,0-9.51,4.17-9.51,10.14v4.17h-5.74v5.68h5.74v24.17h7.77v-24.17h6.77v-5.68h-6.77v-3.71c0-2.32.81-4.57,3.41-4.57,1.69,0,2.68.63,3.36,1.04"/>
    <path class="cls-1" d="M700.67,82.05c0,4.99-1.58,10.32-7.54,10.32s-7.48-5.38-7.48-10.32c0-4.46,2.44-8.86,7.48-8.86s7.54,4.28,7.54,8.86M708.78,82.98c0-9.85-6.77-15.82-15.65-15.82s-15.59,5.97-15.59,15.82c0,8.58,5.74,15.42,15.59,15.42s15.65-6.84,15.65-15.42"/>
    <path class="cls-1" d="M653.05,98.4c2.32,0,4.11-.23,5.74-.7l-.23-6.14c-.81.52-2.14.81-3.54.81-2.95,0-3.64-2.37-3.64-4.92v-13.91h6.89v-5.68h-6.89v-8.46l-7.77,2.49v5.97h-5.74v5.68h5.74v15.19c0,5.91,3.36,9.67,9.44,9.67"/>
    <path class="cls-1" d="M625.42,97.71h7.75v-18.83c0-6.73-3.06-11.71-10.13-11.71-4.06,0-7.37,1.33-9.81,4.75h-.12v-4.05h-7.36v29.85h7.78v-14.61c0-3.82,1.2-9.91,6.82-9.91,4.99,0,5.05,4.93,5.05,8.57v15.95Z"/>
    <path class="cls-1" d="M592.4,79.86h-13.22c.35-4,2.55-7.02,6.91-7.02s6.07,3.26,6.31,7.02M599.81,85.19c0-10.44-3.13-18.03-14.2-18.03-9.28,0-13.85,7.14-13.85,15.76,0,9.81,5.74,15.48,15.59,15.48,4.17,0,7.42-.82,10.25-2.38v-6.32c-2.89,1.62-6.14,3.02-9.91,3.02-4.81,0-8.17-2.74-8.52-7.54h20.63Z"/>
    <path class="cls-1" d="M558.22,97.71h7.76v-18.83c0-6.67-2.08-11.71-9.44-11.71-3.66,0-7.53,1.67-9.34,5.27-1.67-3.71-4.63-5.27-8.8-5.27-2.91,0-6.44,1.21-8.88,4.87h-.11v-4.18h-7.25v29.85h7.77v-14.49c0-3.88.63-10.03,5.79-10.03,4.46,0,4.46,3.94,4.46,6.72v17.79h7.77v-14.49c0-3.88.64-10.03,5.79-10.03,4.47,0,4.47,3.94,4.47,6.72v17.79Z"/>
    <path class="cls-1" d="M506.66,97.71h7.76v-18.83c0-6.73-3.07-11.71-10.14-11.71-4.06,0-7.37,1.33-9.81,4.75h-.11v-4.05h-7.37v29.85h7.78v-14.61c0-3.82,1.2-9.91,6.84-9.91,4.98,0,5.04,4.93,5.04,8.57v15.95Z"/>
    <path class="cls-1" d="M477.86,74.58c1.39,0,2.79.23,3.48.64v-7.83c-.81-.23-1.62-.23-2.37-.23-4.64,0-7.83,4.7-8.17,7.47h-.12v-6.78h-6.89v29.86h7.76v-10.95c0-4.29,0-12.18,6.32-12.18"/>
    <path class="cls-1" d="M450.23,79.86h-13.22c.35-4,2.55-7.02,6.91-7.02s6.08,3.26,6.31,7.02M457.65,85.19c0-10.44-3.13-18.03-14.2-18.03-9.27,0-13.84,7.14-13.84,15.76,0,9.81,5.73,15.48,15.58,15.48,4.18,0,7.42-.82,10.25-2.38v-6.32c-2.89,1.62-6.14,3.02-9.91,3.02-4.81,0-8.17-2.74-8.52-7.54h20.63Z"/>
    <polygon class="cls-1" points="415.94 97.71 426.95 67.86 419.18 67.86 411.99 89.6 411.88 89.6 404.45 67.86 396.11 67.86 407.19 97.71 415.94 97.71"/>
    <path class="cls-1" d="M385.35,82.05c0,4.99-1.57,10.32-7.54,10.32s-7.48-5.38-7.48-10.32c0-4.46,2.44-8.86,7.48-8.86s7.54,4.28,7.54,8.86M393.46,82.98c0-9.85-6.77-15.82-15.65-15.82s-15.59,5.97-15.59,15.82c0,8.58,5.74,15.42,15.59,15.42s15.65-6.84,15.65-15.42"/>
    <path class="cls-1" d="M343.35,98.4c4.34,0,8.81-.93,13.09-2.09v-21.79h-16.34v6.37h8.58v10.56c-1.39.35-3.12.59-5.33.59-8.64,0-13.74-6.21-13.74-14.44s5.22-14.66,14.66-14.66c3.25,0,7.31.69,10.43,2.14l.52-6.85c-3.47-1.04-7.19-1.67-11.87-1.67-13.74,0-22.19,7.77-22.19,21.61s9.1,20.23,22.19,20.23"/>
    <rect class="cls-1" x="320.09" y="123.69" width="844.82" height="8.78"/>
    <path class="cls-1" d="M322.98,154.5h10.02c14.5,0,20.24,8.35,20.24,20.17,0,14.67-9.8,20.29-23.19,20.29h-7.07v-40.46ZM326.98,191.49h3.3c11.48,0,18.95-4.64,18.95-17.04s-7.36-16.46-16.4-16.46h-5.86v33.51Z"/>
    <path class="cls-1" d="M381.39,194.03c-2.55,1.05-5.86,1.62-8.59,1.62-9.8,0-13.45-6.61-13.45-15.48s4.99-15.48,12.47-15.48c8.34,0,11.76,6.72,11.76,14.67v1.85h-20.23c0,6.26,3.37,11.3,9.74,11.3,2.67,0,6.55-1.1,8.3-2.2v3.71ZM379.59,178.09c0-5.16-2.09-10.26-7.53-10.26s-8.7,5.39-8.7,10.26h16.23Z"/>
    <path class="cls-1" d="M390.18,165.4h3.65l-.23,5.39h.12c.92-1.62,3.18-6.09,9.44-6.09,8.7,0,12.18,6.49,12.18,15.48s-4.05,15.48-12.18,15.48c-4.63,0-7.42-1.91-9.21-5.74h-.12v17.21h-3.65v-41.73ZM402.58,167.83c-6.49,0-8.75,6.96-8.75,12.34s2.27,12.35,8.75,12.35c6.96,0,8.75-6.61,8.75-12.35s-1.79-12.34-8.75-12.34"/>
    <path class="cls-1" d="M439.73,190.21h-.12c-1.62,3.54-5.74,5.45-9.39,5.45-8.41,0-9.74-5.68-9.74-8.35,0-9.91,10.55-10.37,18.2-10.37h.69v-1.51c0-5.04-1.8-7.59-6.72-7.59-3.07,0-5.97.69-8.7,2.43v-3.54c2.26-1.1,6.09-2.03,8.7-2.03,7.29,0,10.37,3.3,10.37,11.01v13.04c0,2.37,0,4.17.3,6.21h-3.59v-4.75ZM439.37,180.07h-1.04c-6.31,0-13.86.63-13.86,7.13,0,3.88,2.79,5.33,6.16,5.33,8.57,0,8.74-7.47,8.74-10.66v-1.8Z"/>
    <path class="cls-1" d="M451.7,172.01c0-3.25,0-4.46-.23-6.61h3.65v5.69h.12c1.33-3.31,3.83-6.38,7.6-6.38.87,0,1.91.17,2.55.35v3.82c-.76-.23-1.74-.35-2.66-.35-5.8,0-7.37,6.49-7.37,11.83v14.61h-3.65v-22.96Z"/>
    <path class="cls-1" d="M483.74,168.53h-6.72v19.13c0,2.67.99,4.87,3.94,4.87,1.39,0,2.32-.29,3.36-.69l.24,3.01c-.87.35-2.68.82-4.47.82-6.49,0-6.73-4.47-6.73-9.86v-17.27h-5.79v-3.13h5.79v-7.13l3.66-1.28v8.41h6.72v3.13Z"/>
    <path class="cls-1" d="M525.99,194.96v-19.65c0-4.17-1.57-7.47-6.26-7.47-4,0-7.94,3.42-7.94,10.78v16.35h-3.64v-19.65c0-4.17-1.57-7.47-6.26-7.47-4,0-7.94,3.42-7.94,10.78v16.35h-3.65v-22.6c0-2.27,0-4.58-.23-6.95h3.54v4.99l.12.05c1.16-2.03,2.9-5.74,9.21-5.74,2.61,0,6.91,1.1,7.83,6.26h.12c1.34-3.48,4.81-6.26,9.45-6.26,5.97,0,9.33,4.18,9.33,9.91v20.35h-3.65Z"/>
    <path class="cls-1" d="M558.36,194.03c-2.55,1.05-5.86,1.62-8.59,1.62-9.8,0-13.45-6.61-13.45-15.48s4.99-15.48,12.47-15.48c8.34,0,11.76,6.72,11.76,14.67v1.85h-20.23c0,6.26,3.37,11.3,9.74,11.3,2.67,0,6.55-1.1,8.3-2.2v3.71ZM556.56,178.09c0-5.16-2.09-10.26-7.53-10.26s-8.7,5.39-8.7,10.26h16.23Z"/>
    <path class="cls-1" d="M567.49,172.36c0-2.26,0-4.58-.23-6.95h3.54v5.27h.12c1.21-2.67,3.42-5.97,9.57-5.97,7.3,0,10.09,4.87,10.09,11.36v18.9h-3.66v-17.97c0-5.56-1.97-9.16-7-9.16-6.67,0-8.76,5.86-8.76,10.78v16.35h-3.65v-22.6Z"/>
    <path class="cls-1" d="M612.45,168.53h-6.72v19.13c0,2.67.99,4.87,3.94,4.87,1.39,0,2.32-.29,3.36-.69l.24,3.01c-.87.35-2.67.82-4.47.82-6.49,0-6.73-4.47-6.73-9.86v-17.27h-5.79v-3.13h5.79v-7.13l3.66-1.28v8.41h6.72v3.13Z"/>
    <path class="cls-1" d="M646.63,164.71c9.57,0,13.8,7.42,13.8,15.47s-4.24,15.48-13.8,15.48-13.79-7.42-13.79-15.48,4.24-15.47,13.79-15.47M646.63,192.53c6.38,0,9.8-5.5,9.8-12.35s-3.42-12.34-9.8-12.34-9.8,5.5-9.8,12.34,3.43,12.35,9.8,12.35"/>
    <path class="cls-1" d="M669.8,168.53h-5.97v-3.13h5.97v-2.14c0-6.21.23-12.47,7.82-12.47,1.16,0,2.73.18,3.42.59l-.23,3.19c-.75-.41-1.85-.64-2.9-.64-4.98,0-4.46,5.39-4.46,8.93v2.55h6.67v3.13h-6.67v26.43h-3.65v-26.43Z"/>
    <path class="cls-1" d="M703.1,154.5h9.97c7.59,0,12.52,3.83,12.52,11.48s-5.68,11.48-12.92,11.48h-5.57v17.5h-4v-40.46ZM707.1,173.98h2.79c6.02,0,11.71-.69,11.71-8,0-5.1-2.9-7.99-8-7.99h-6.49v15.99Z"/>
    <path class="cls-1" d="M731.66,172.01c0-3.25,0-4.46-.23-6.61h3.65v5.69h.12c1.33-3.31,3.83-6.38,7.6-6.38.87,0,1.91.17,2.55.35v3.82c-.76-.23-1.74-.35-2.66-.35-5.8,0-7.37,6.49-7.37,11.83v14.61h-3.65v-22.96Z"/>
    <path class="cls-1" d="M754.6,157.51h-3.65v-4.87h3.65v4.87ZM750.95,165.4h3.65v29.56h-3.65v-29.56Z"/>
    <path class="cls-1" d="M799.52,194.96v-19.65c0-4.17-1.56-7.47-6.26-7.47-4,0-7.94,3.42-7.94,10.78v16.35h-3.64v-19.65c0-4.17-1.57-7.47-6.26-7.47-4,0-7.94,3.42-7.94,10.78v16.35h-3.65v-22.6c0-2.27,0-4.58-.23-6.95h3.54v4.99l.12.05c1.16-2.03,2.9-5.74,9.21-5.74,2.61,0,6.91,1.1,7.83,6.26h.12c1.34-3.48,4.81-6.26,9.45-6.26,5.97,0,9.33,4.18,9.33,9.91v20.35h-3.65Z"/>
    <path class="cls-1" d="M829.05,190.21h-.12c-1.63,3.54-5.74,5.45-9.39,5.45-8.41,0-9.74-5.68-9.74-8.35,0-9.91,10.56-10.37,18.2-10.37h.69v-1.51c0-5.04-1.8-7.59-6.72-7.59-3.07,0-5.97.69-8.7,2.43v-3.54c2.27-1.1,6.09-2.03,8.7-2.03,7.3,0,10.37,3.3,10.37,11.01v13.04c0,2.37,0,4.17.29,6.21h-3.59v-4.75ZM828.69,180.07h-1.04c-6.31,0-13.85.63-13.85,7.13,0,3.88,2.79,5.33,6.15,5.33,8.58,0,8.74-7.47,8.74-10.66v-1.8Z"/>
    <path class="cls-1" d="M841.02,172.01c0-3.25,0-4.46-.23-6.61h3.65v5.69h.12c1.33-3.31,3.83-6.38,7.6-6.38.87,0,1.91.17,2.55.35v3.82c-.75-.23-1.73-.35-2.66-.35-5.8,0-7.36,6.49-7.36,11.83v14.61h-3.66v-22.96Z"/>
    <path class="cls-1" d="M868.55,190.03h.06l8.52-24.63h3.82l-11.83,33.97c-1.38,4.05-3.47,8.12-7.59,8.12-1.33,0-2.72-.17-3.94-.47l.35-3.12c.69.23,1.39.46,2.72.46,3.13,0,4.18-2.61,5.34-6.44l.75-2.61-10.49-29.91h4l8.29,24.63Z"/>
    <rect class="cls-1" x="902.04" y="154.5" width="4" height="40.46"/>
    <path class="cls-1" d="M915,172.36c0-2.26,0-4.58-.23-6.95h3.54v5.27h.12c1.21-2.67,3.42-5.97,9.57-5.97,7.3,0,10.09,4.87,10.09,11.36v18.9h-3.66v-17.97c0-5.56-1.97-9.16-7-9.16-6.67,0-8.76,5.86-8.76,10.78v16.35h-3.65v-22.6Z"/>
    <path class="cls-1" d="M970.63,194.96h-3.65v-4.69h-.12c-1.97,3.77-4.99,5.39-9.21,5.39-8.13,0-12.18-6.72-12.18-15.48s3.48-15.47,12.18-15.47c5.79,0,8.69,4.23,9.21,5.68h.12v-18.9h3.65v43.47ZM958.23,192.53c6.49,0,8.75-6.95,8.75-12.35s-2.27-12.34-8.75-12.34c-6.96,0-8.76,6.61-8.76,12.34s1.8,12.35,8.76,12.35"/>
    <path class="cls-1" d="M1002.49,188c0,2.26,0,4.58.23,6.96h-3.54v-5.27h-.12c-1.21,2.67-3.42,5.97-9.57,5.97-7.3,0-10.09-4.87-10.09-11.36v-18.9h3.66v17.97c0,5.56,1.97,9.16,7,9.16,6.67,0,8.76-5.86,8.76-10.79v-16.34h3.65v22.6Z"/>
    <path class="cls-1" d="M1009.36,190.67c2.21,1.1,4.87,1.85,7.71,1.85,3.47,0,6.55-1.91,6.55-5.27,0-7.01-14.21-5.91-14.21-14.5,0-5.85,4.75-8.05,9.62-8.05,1.57,0,4.7.35,7.31,1.33l-.35,3.19c-1.91-.87-4.52-1.39-6.55-1.39-3.77,0-6.38,1.16-6.38,4.93,0,5.51,14.55,4.81,14.55,14.5,0,6.26-5.85,8.41-10.32,8.41-2.84,0-5.69-.35-8.29-1.39l.35-3.59Z"/>
    <path class="cls-1" d="M1046.91,168.53h-6.73v19.13c0,2.67.99,4.87,3.95,4.87,1.39,0,2.32-.29,3.36-.69l.23,3.01c-.87.35-2.67.82-4.47.82-6.49,0-6.72-4.47-6.72-9.86v-17.27h-5.79v-3.13h5.79v-7.13l3.65-1.28v8.41h6.73v3.13Z"/>
    <path class="cls-1" d="M1053.45,172.01c0-3.25,0-4.46-.24-6.61h3.66v5.69h.11c1.34-3.31,3.83-6.38,7.6-6.38.87,0,1.92.17,2.55.35v3.82c-.76-.23-1.74-.35-2.66-.35-5.8,0-7.37,6.49-7.37,11.83v14.61h-3.65v-22.96Z"/>
    <path class="cls-1" d="M1076.39,157.51h-3.65v-4.87h3.65v4.87ZM1072.74,165.4h3.65v29.56h-3.65v-29.56Z"/>
    <path class="cls-1" d="M1105.42,194.03c-2.55,1.05-5.86,1.62-8.59,1.62-9.79,0-13.45-6.61-13.45-15.48s4.99-15.48,12.47-15.48c8.35,0,11.77,6.72,11.77,14.67v1.85h-20.23c0,6.26,3.36,11.3,9.73,11.3,2.68,0,6.55-1.1,8.3-2.2v3.71ZM1103.62,178.09c0-5.16-2.09-10.26-7.54-10.26s-8.69,5.39-8.69,10.26h16.23Z"/>
    <path class="cls-1" d="M1112.3,190.67c2.21,1.1,4.87,1.85,7.71,1.85,3.48,0,6.55-1.91,6.55-5.27,0-7.01-14.21-5.91-14.21-14.5,0-5.85,4.75-8.05,9.62-8.05,1.57,0,4.7.35,7.31,1.33l-.35,3.19c-1.91-.87-4.52-1.39-6.55-1.39-3.77,0-6.38,1.16-6.38,4.93,0,5.51,14.55,4.81,14.55,14.5,0,6.26-5.85,8.41-10.32,8.41-2.84,0-5.68-.35-8.29-1.39l.35-3.59Z"/>
    <path class="cls-1" d="M339.91,248.13h-.12c-1.62,3.54-5.74,5.46-9.39,5.46-8.41,0-9.74-5.68-9.74-8.35,0-9.91,10.55-10.37,18.2-10.37h.69v-1.5c0-5.05-1.8-7.6-6.72-7.6-3.07,0-5.97.69-8.7,2.43v-3.54c2.26-1.1,6.09-2.03,8.7-2.03,7.29,0,10.37,3.3,10.37,11.02v13.04c0,2.38,0,4.18.29,6.21h-3.58v-4.76ZM339.56,237.99h-1.04c-6.32,0-13.86.63-13.86,7.13,0,3.88,2.79,5.33,6.15,5.33,8.58,0,8.75-7.48,8.75-10.66v-1.8Z"/>
    <path class="cls-1" d="M351.89,230.28c0-2.27,0-4.58-.23-6.96h3.54v5.28h.12c1.21-2.66,3.42-5.97,9.57-5.97,7.3,0,10.09,4.87,10.09,11.36v18.9h-3.65v-17.97c0-5.55-1.98-9.16-7.01-9.16-6.67,0-8.76,5.85-8.76,10.79v16.34h-3.65v-22.6Z"/>
    <path class="cls-1" d="M407.51,252.89h-3.65v-4.69h-.12c-1.97,3.77-4.99,5.38-9.21,5.38-8.13,0-12.18-6.72-12.18-15.48s3.48-15.48,12.18-15.48c5.79,0,8.69,4.24,9.21,5.68h.12v-18.9h3.65v43.48ZM395.11,250.45c6.49,0,8.75-6.95,8.75-12.34s-2.27-12.34-8.75-12.34c-6.96,0-8.75,6.61-8.75,12.34s1.79,12.34,8.75,12.34"/>
    <path class="cls-1" d="M432.94,212.42h10.42c7.19,0,11.89,3.07,11.89,10.5,0,5.21-4,8.69-8.98,9.33v.12c3.24.41,3.93,2.15,5.22,4.87l6.9,15.65h-4.41l-5.85-13.68c-2.32-5.22-4.06-5.39-7.89-5.39h-3.3v19.07h-4v-40.46ZM436.93,230.34h4.24c4.69,0,10.08-1.8,10.08-7.42,0-6.61-4.69-7.02-10.2-7.02h-4.11v14.44Z"/>
    <path class="cls-1" d="M484.45,251.96c-2.55,1.04-5.86,1.62-8.59,1.62-9.8,0-13.45-6.61-13.45-15.48s4.99-15.48,12.47-15.48c8.34,0,11.76,6.72,11.76,14.66v1.86h-20.23c0,6.26,3.37,11.3,9.74,11.3,2.67,0,6.55-1.1,8.3-2.2v3.72ZM482.64,236.02c0-5.16-2.09-10.26-7.53-10.26s-8.7,5.39-8.7,10.26h16.23Z"/>
    <path class="cls-1" d="M517,250.45c0,8.23-3.71,14.96-13.84,14.96-3.89,0-7.42-1.1-8.94-1.57l.3-3.64c2.26,1.15,5.51,2.08,8.69,2.08,9.39,0,10.21-6.84,10.21-15.19h-.12c-1.97,4.29-5.22,5.79-8.98,5.79-9.44,0-12.47-8.23-12.47-14.78,0-8.98,3.48-15.48,12.18-15.48,3.94,0,6.49.53,9.21,4.05h.12v-3.36h3.65v27.13ZM504.36,249.76c6.61,0,8.98-6.26,8.98-11.65,0-7.13-2.09-12.34-8.75-12.34s-8.75,6.61-8.75,12.34,2.32,11.65,8.52,11.65"/>
    <path class="cls-1" d="M529.45,215.45h-3.65v-4.87h3.65v4.87ZM525.79,223.32h3.65v29.57h-3.65v-29.57Z"/>
    <path class="cls-1" d="M550.18,222.63c9.57,0,13.8,7.42,13.8,15.48s-4.24,15.48-13.8,15.48-13.79-7.42-13.79-15.48,4.24-15.48,13.79-15.48M550.18,250.45c6.38,0,9.8-5.5,9.8-12.34s-3.42-12.34-9.8-12.34-9.8,5.5-9.8,12.34,3.43,12.34,9.8,12.34"/>
    <path class="cls-1" d="M570.86,230.28c0-2.27,0-4.58-.23-6.96h3.54v5.28h.12c1.21-2.66,3.42-5.97,9.57-5.97,7.3,0,10.09,4.87,10.09,11.36v18.9h-3.66v-17.97c0-5.55-1.97-9.16-7-9.16-6.67,0-8.76,5.85-8.76,10.79v16.34h-3.65v-22.6Z"/>
    <path class="cls-1" d="M600.8,248.6c2.21,1.1,4.87,1.85,7.7,1.85,3.48,0,6.55-1.91,6.55-5.27,0-7.02-14.2-5.92-14.2-14.5,0-5.85,4.75-8.05,9.62-8.05,1.57,0,4.69.35,7.31,1.33l-.36,3.19c-1.9-.87-4.51-1.39-6.54-1.39-3.77,0-6.38,1.15-6.38,4.92,0,5.5,14.55,4.81,14.55,14.5,0,6.26-5.85,8.41-10.32,8.41-2.84,0-5.69-.35-8.29-1.39l.35-3.59Z"/>
    <path class="cls-1" d="M153.85,92.29c35.43-1.29,65.19,26.37,66.49,61.8,1.3,35.41-26.36,65.18-61.79,66.48-35.42,1.3-65.19-26.36-66.48-61.79-1.29-35.42,26.35-65.18,61.78-66.49M153.9,93.5c-34.76,1.28-61.89,30.48-60.63,65.24,1.29,34.76,30.49,61.89,65.25,60.63,34.74-1.28,61.89-30.49,60.62-65.24-1.27-34.76-30.48-61.9-65.24-60.63"/>
    <path class="cls-1" d="M69.46,170.02l-4.35,2.52c-.49.3-1.52.77-1.83.82-1.91.23-1.18-2.29-2.07-2.18-.32.04-.4.26-.35.6.17,1.4.4,2.74.58,4.1.16,1.37.26,2.75.44,4.12.03.35.1.58.49.54.78-.1-.45-1.62,1.52-2.77l15.75-9.34c4.42-2.6,5.59-2.74,5.53-3.19s-.54-.21-2.18-.74c-2.2-.7-2.2-1.29-2.73-1.24-.43.06-1,.96-1.24.99-.29.04-1.67-.38-12.76-3.19-2.52-.63-4.53-1.53-5.42-2.33-.96-.86-.77-2.24-1.41-2.16-.29.03-.41.16-.37.49.15,1.24.36,2.32.49,3.45.28,2.34.31,3.16.4,3.88.05.38.07.55.46.51.85-.12-.35-2.85,3.18-3.29,1.03-.12,2.1.2,4.94.79l.93,7.61ZM70.28,169.57l-.85-6.92,9.09,2.15-8.24,4.77Z"/>
    <path class="cls-1" d="M72.35,190.63c-3.56,1.9-4.85,5.98-1.85,11.63,2.54,4.75,6.43,5.85,10.83,3.51l9.65-5.13c2.67-1.42,4.56-.97,5.55-.02.68.66.74,1.1,1.18.86.28-.15.26-.36,0-.85-.59-1.1-1.09-1.9-1.77-3.17-.68-1.28-1.05-2.13-1.63-3.23-.26-.49-.42-.64-.71-.49-.43.24-.11.54.06,1.47.24,1.35-.45,3.17-3.12,4.59l-9.72,5.16c-3.77,2.01-6.95,1.32-8.88-2.28-1.77-3.32-.97-6.59,2.33-8.36l13.33-7.09c2.09-1.11,2.44,1.94,3.22,1.53.39-.21.35-.41.09-.91-.57-1.06-1.05-1.83-2.03-3.66-.97-1.83-1.33-2.65-1.9-3.72-.26-.49-.4-.64-.79-.44-.79.42,1.57,2.41-.54,3.53l-13.29,7.07Z"/>
    <path class="cls-1" d="M87.54,225.1c-.22.27-.14.44-.03.52.5.43.88-.83,1.96.07.69.58,1.61,3.1,3.53,4.72,4.32,3.62,8.78,2.39,11.2-.49,5.55-6.63-5.67-13.18-1.46-18.2,1.44-1.72,3.66-1.94,5.67-.26,2.99,2.51,2.2,6.35.49,10.22-.18.37-.43.77-.21.94.16.14.39.14.62-.13.3-.35,1.76-2.33,4.62-6.44.23-.32.26-.47.08-.63-.5-.42-.9.75-1.65.11-1.04-.87-1.02-2.71-3.37-4.7-3.02-2.53-7.57-2.25-9.95.58-5.64,6.71,6.07,12.72,1.43,18.22-1.55,1.85-4.12,2.5-6.77.27-3.49-2.93-2.01-7.54.35-11.27.43-.67.55-.94.31-1.13-.12-.12-.33-.14-.54.11l-6.3,7.5Z"/>
    <path class="cls-1" d="M134.18,226.64c3.29,1.14,5.1,5.11,5.44,8.27.1.9.11,1.39.3,1.46.24.07.35-.03.39-.16.14-.41.23-1.28.31-1.97l.87-5.88c.03-.21.15-.66-.15-.77-.19-.07-.3.04-.51.12-.25.07-.59.09-1.28-.14l-14.13-4.86c-.68-.24-.94-.47-1.08-.68-.12-.19-.14-.35-.34-.41-.29-.1-.48.32-.58.51l-2.94,5.16c-.35.6-.83,1.34-.96,1.74-.05.14-.03.3.2.38.2.07.51-.31,1.14-.96,2.21-2.29,6.08-4.31,9.39-3.17l-6.72,19.6c-.78,2.25-3.64.07-3.92.91-.15.4.16.58.68.76,1.53.53,2.41.76,4.36,1.43,1.96.68,2.79,1.03,4.32,1.56.53.19.87.23,1.01-.17.29-.85-3.31-.88-2.53-3.14l6.74-19.59Z"/>
    <path class="cls-1" d="M157.23,251.19c.21,2.37-2.74,1.48-2.66,2.37.02.42.24.48.79.43,1.2-.1,2.09-.26,4.15-.43,2.07-.19,2.97-.2,4.17-.3.55-.03.76-.13.72-.56-.08-.88-2.83.5-3.04-1.87l-.75-8.58.54-.06c2.62-.23,3.38.49,6.18,4.89l3.5,5.49c3.07-.23,5.44-.4,5.92-.44.48-.04.68-.16.64-.49-.07-.88-2.45.54-4.19-2.38l-2.24-3.82c-2.03-3.43-3.6-3.86-6.94-3.96v-.07c4.92-.79,8.09-3.28,7.79-6.86-.26-3.05-3.17-6.08-9.87-5.5-1.34.12-2.68.3-4.54.47-2.07.18-2.97.19-4.17.3-.54.05-.74.14-.72.56.08.89,2.84-.49,3.06,1.88l1.65,18.95ZM159.55,230.11l2.03-.18c3.28-.29,5.36,1.04,5.72,5.12.36,4.12-1.46,5.88-5.17,6.21l-1.59.14-.98-11.28Z"/>
    <path class="cls-1" d="M221.29,225.31c1.75,1.62-1.05,2.95-.39,3.56.3.29.5.18.88-.22.82-.88,1.38-1.58,2.79-3.11,5.22-5.6,7.33-7.75,9.17-9.72l-4.9-6.55c-.29-.42-.53-.63-.68-.78-.13-.12-.3-.19-.48,0-.16.17-.1.36.18.86,1.89,3.13,3.02,8.29-.65,12.24-1.19,1.26-2.16,1.57-3.64.19l-13.36-12.45c-1.75-1.63,1.04-2.95.39-3.55-.3-.3-.5-.19-.87.21-.83.88-1.38,1.59-2.8,3.11-1.41,1.52-2.08,2.13-2.91,3.01-.37.4-.45.6-.15.89.65.61,1.78-2.27,3.52-.63l13.9,12.96Z"/>
    <path class="cls-1" d="M241.44,197.4c2.17,1.01-.08,3.12.73,3.5.39.18.53.02.77-.48.51-1.1.82-1.94,1.71-3.82.87-1.88,1.31-2.66,1.82-3.76.24-.5.27-.73-.12-.9-.81-.38-.99,2.7-3.15,1.7l-17.23-8.04c-2.17-1.01.08-3.12-.73-3.5-.39-.17-.54-.02-.77.48-.51,1.1-.82,1.94-1.71,3.82-.87,1.88-1.32,2.66-1.82,3.76-.24.5-.26.72.12.9.81.37.99-2.71,3.15-1.7l17.23,8.03Z"/>
    <path class="cls-1" d="M244.36,164.36l4.84-1.39c.57-.17,1.66-.39,1.98-.35,1.91.23.59,2.51,1.48,2.62.32.03.45-.16.49-.5.17-1.4.26-2.74.43-4.12.17-1.38.41-2.74.58-4.1.05-.34.04-.59-.35-.63-.78-.09.04,1.67-2.15,2.32l-17.54,5.25c-4.9,1.45-6.07,1.31-6.13,1.76-.06.44.46.34,1.93,1.25,1.97,1.21,1.82,1.78,2.36,1.85.42.06,1.19-.68,1.44-.65.29.03,1.52.77,11.62,6.19,2.28,1.22,4.02,2.58,4.69,3.57.73,1.06.21,2.36.84,2.44.29.03.44-.06.48-.4.16-1.24.21-2.35.36-3.48.28-2.32.45-3.14.54-3.86.04-.38.07-.55-.33-.6-.84-.1-.35,2.84-3.87,2.41-1.03-.12-2-.7-4.6-1.95l.92-7.61ZM243.48,164.6l-.86,6.92-8.29-4.29,9.15-2.64Z"/>
    <path class="cls-1" d="M98.44,112.41c.26.24.44.16.53.05.46-.49-.77-.93.21-1.99.63-.68,3.25-1.5,5.02-3.4,3.96-4.25,3.02-8.83.26-11.4-6.33-5.9-13.72,5.27-18.51.8-1.64-1.53-1.72-3.8.12-5.78,2.74-2.94,6.58-1.99,10.38-.11.35.19.74.45.94.25.14-.16.16-.4-.11-.63-.34-.31-2.23-1.89-6.19-4.94-.31-.25-.46-.29-.63-.11-.45.49.68.94-.02,1.69-.95,1.01-2.81.93-4.98,3.25-2.77,2.97-2.8,7.61-.1,10.14,6.4,5.97,13.28-5.68,18.54-.77,1.77,1.64,2.23,4.28-.19,6.88-3.21,3.44-7.78,1.76-11.39-.78-.64-.46-.91-.6-1.12-.36-.12.12-.16.33.07.54l7.15,6.68Z"/>
    <path class="cls-1" d="M128.96,76.07c3.27,7.35,1.67,12.16-2.59,14.06-4.27,1.9-8.91-.13-12.17-7.48-3.28-7.35-1.68-12.15,2.58-14.05,4.27-1.9,8.91.12,12.18,7.47M116.44,67.81c-5.5,2.45-9.78,9.46-6.53,16.74,3.26,7.28,11.32,8.79,16.82,6.35,5.5-2.45,9.78-9.45,6.53-16.74-3.25-7.28-11.31-8.79-16.82-6.35"/>
    <path class="cls-1" d="M146.21,77.62c.07,4.02,3.23,7.03,9.81,6.91,5.55-.1,8.38-3.07,8.29-8.05l-.18-10.93c-.07-3.02,1.24-4.51,2.58-4.96.92-.3,1.35-.16,1.34-.66,0-.32-.22-.39-.79-.38-1.28.02-2.25.11-3.73.14-1.5.02-2.46-.03-3.74,0-.58,0-.78.08-.77.4,0,.5.42.35,1.36.62,1.37.4,2.7,1.84,2.75,4.87l.19,10.99c.08,4.28-2.05,6.8-6.25,6.87-3.87.07-6.52-2.13-6.58-5.87l-.26-15.09c-.04-2.39,2.93-1.3,2.92-2.19,0-.42-.21-.49-.79-.49-1.24.02-2.17.12-4.3.15s-3.07-.02-4.32,0c-.56.02-.77.09-.77.52.02.89,2.96-.3,3,2.08l.26,15.06Z"/>
    <path class="cls-1" d="M193.72,68.19c3.34,1.34,5.02,5.44,5.22,8.64.07.91.06,1.4.25,1.48.22.09.35,0,.4-.15.16-.4.28-1.26.4-1.94l1.13-5.84c.05-.21.19-.65-.11-.77-.2-.07-.32.02-.54.1-.26.04-.6.06-1.3-.22l-14.28-5.77c-.7-.29-.94-.54-1.09-.75-.11-.2-.12-.35-.32-.44-.3-.12-.5.3-.62.48l-3.25,4.99c-.39.58-.9,1.29-1.06,1.68-.06.13-.04.3.2.39.19.07.54-.28,1.2-.9,2.37-2.15,6.42-3.92,9.77-2.58l-7.74,19.23c-.89,2.21-3.72-.16-4.06.66-.16.4.15.59.67.81,1.56.63,2.44.91,4.42,1.71,1.98.8,2.81,1.21,4.37,1.85.53.21.88.28,1.04-.12.34-.82-3.36-1.09-2.46-3.3l7.75-19.21Z"/>
    <path class="cls-1" d="M219.64,99.46l-6.77,7.02c-1.66,1.71-2.99-1.16-3.61-.52-.3.3-.19.51.22.91.89.86,1.62,1.45,3.14,2.93,1.54,1.48,2.16,2.18,3.06,3.05.4.39.61.49.91.18.62-.63-2.3-1.87-.64-3.58l13.2-13.68c1.66-1.71,3,1.15,3.62.52.3-.3.19-.51-.22-.91-.9-.87-1.61-1.45-3.15-2.94-1.53-1.48-2.15-2.18-3.05-3.04-.4-.4-.61-.49-.91-.19-.62.64,2.3,1.88.64,3.59l-5.84,6.04-7.39-7.14,5.84-6.04c1.65-1.72,2.97,1.15,3.59.52.3-.31.2-.51-.21-.91-.9-.87-1.61-1.46-3.15-2.95-1.53-1.48-2.15-2.17-3.05-3.04-.4-.4-.6-.49-.91-.18-.63.64,2.3,1.87.64,3.59l-13.21,13.67c-1.66,1.71-2.98-1.15-3.61-.52-.3.31-.2.51.22.91.89.87,1.61,1.46,3.15,2.94,1.53,1.48,2.16,2.18,3.04,3.04.41.4.61.49.91.19.63-.64-2.29-1.87-.63-3.59l6.77-7.01,7.4,7.14Z"/>
    <path class="cls-1" d="M182.03,135.53c-.07-.17-.19-.3-.4-.35-.2.1-.39.22-.59.37-.82.62-1.59,1.58-2.12,2.23-.26.68-1.1,1.29-.09,2.6l3.43-3.49c-.15-.4-.07-.98-.24-1.36M180.76,132.51c-.78.92-1.62,1.92-2.18,3.02-.1.21-.2.4-.28.63-.18.4-.44.89.33,1.15l1.24-1.78.41-.59c.45-.68,1.4-1.11,1.08-2.06l-.59-.36ZM178.07,135.53c.68-1.16,1.02-2.49,1.71-3.56-.11-.38.16-.87-.23-1.15-1.26-.24-1.1,1.39-2.05,1.9-.05-1.44,1.06-2.45.82-3.78-.21-.47-.42-.94-1.58-1.19-.35,2.42-.3,4.85.66,7.77l.22.66c.17-.21.31-.43.45-.66M137.6,125.82l-.3-.28c-1.15.14-1.67,1.51-2.13,2.39.54,1.71,1.28,3.32,1.63,5.13.91-1.48.84-3.3.96-5.04-.12-.87-.14-1.34-.16-2.21M135.37,130.9c-.4-.56-.16-1.73-1.12-1.69-.56.4-.64.99-.81,1.57.62,1.14.95,2.37,2.36,3.96.35-.97-.26-1.81-.43-3.83M135.25,135.53c-.38-.74-1.05-1.43-1.42-2.16l-1.1-1.01c-1.21.93.13,2.17.45,3.18-.18.23-.31.12-.41,0-.2-.26-.27-.57-.72-.55-.21.09-.32.31-.39.56-.07.3-.09.63-.12.9.41,1.05,1.69,1.48,2.4,2.8-.77-.16-1.46-.72-2.69.1l2.61,2.79c-.47.49-.97-.35-2.41-.21.03.77.13,1.15.26,1.82.89.83,2.08,1.47,3.39.64-.28-2.3-.47-4.99.3-7.23.22-.59.1-1.13-.16-1.63M182.65,139.47l-.3-.27c-1.34.04-2.37,1.05-3.4,1.85-.07.39-.73.79-.25,1.16,1.15-.23,2.3-.37,3.33-.99.28-.49.84-1,.62-1.76M181.61,142.49c-1.19-.73-2.3.37-2.92,1.94.97.16,2.22-.18,2.92-1.94M150.73,144.88c.91.78,1.98,1.6,1.52,2.83-.48.21-1.07-.16-1.55-.23-.68-.17-1.66-.42-1.92.26.18.06.35.15.54.26,1.1.63,2.24,1.87,3.44.75.16-.25.27-.49.34-.76.22-.99-.2-2.08-.47-3.11-.82-.72-1.8-1.44-2.74-.83.21.29.51.57.83.84M156.1,147.47l-1.09-.63c-.34.1-.44.35-.36,1.15l.03.31c.25.15.57.44,1.1-.3.1-.14.2-.3.31-.52M171.97,160.44h.78c1.4-.54-.26-1.35-.19-2.12.67-.12.99.82,1.57,1.09.59.17,1.38,1.01,1.94.13.06-.97-.64-1.71-1.16-2.75.97.44,1.88,1.47,3.88.91.04-1.44-1.33-2.07-2.22-2.9,1.01-.22,1.97.44,3.7-.59-.21-1.47-1.68-1.99-2.93-2.13.36-.59,1.13-.82,1.64-2.47-1.09-.82-1.8.45-2.78.39-.61-.84.83-.89,1.1-1.67.02-.11.06-.22.1-.34.12-.38.27-.75.04-1.11-.79-.54-1.33.35-1.9.74-.3-.46.07-1.05.04-1.63l-.68-.07c-.26.66-.44,1.37-.6,2.07-.23.95-.45,1.9-.86,2.8-.54,1.17-1.3,2.3-2.05,3.44-.62.93-1.22,1.88-1.66,2.86-.16.77.25,1.43.46,2.1.45.62,1.05,1.12,1.79,1.26M133.52,154.08c.85.94,1.99.36,2.93.13h.26c-.54.51-1.12,1.26-1.1,2-.27.59.13,1.05.63,1.23,1.26.34,1.98-.95,2.94-1.07-.35.88-1.29,1.39-.09,3.08.88.16,1.33-.82,1.92-.36.02.48.13,1.05.63,1.33,1.25.15,1.99-.85,2.54-1.72.64-1.61-.31-3.07-.89-4.47l-.16-.4c-1.01-1.5-2.79-2.49-3.14-4.31-.16-.45-.19-.98-.22-1.52-.07-1.04-.15-2.11-1-2.77-.56.4.05,1.34.07,1.92-.58.12-.7-.64-1.85-.8-.3.63-.08,1.13.18,1.65l.18.36c-.08.48.79.83.24,1.33-.87.03-1.48-.91-2.27-1.07-.38.02-1.15-.15-1.33.44-.06.87.64,1.62,2.32,2.7-.68.31-1.33.73-1.99.94-.46.4-1.04.71-.82,1.38M161.47,200.92c.21.69.46,1.31,1.92.95,0-.32-.03-.64-.08-.95-.2-1.1-.68-2.13-1.27-3.11-.84-1.43-1.86-2.81-2.42-4.37-.4-.47-.77-2.47-1.59-1.19l.16.69c.44,1.69,1.23,3.27,1.99,4.88.4.85.79,1.71,1.13,2.59.07.17.12.34.16.52M156.83,200.92c.22.36.53.69.97.96.59.37.62,1.23,1.75.42l-.12-1.38c-.11-1.06-.26-2.1-.45-3.11-.3-1.55-.7-3.06-1.21-4.58l-.79-.65c-.56.4-.24,1.26-.41,1.85.03.21.05.44.05.68.02.86-.12,1.8-.21,2.72-.1,1.13-.11,2.24.42,3.11M152.86,200.92c-.06.68.06,1.34.74,1.98.54-.75,1.22-1.29,1.8-1.98.12-.13.22-.26.33-.41.04-.92.07-1.82.07-2.7.02-1.62,0-3.19-.06-4.8l-.68-.26c-.4,1.73-1.19,3.35-1.62,5.08-.12.41-.2.82-.26,1.24-.07.64-.27,1.25-.32,1.86M148.1,197.82l-1.08,1.67c-.26.37-.51.91.58,1.43.54-.94,1.16-1.81,1.8-2.58,1.31-2.2,3-4.32,3.72-6.76l-.24-.49c-1.77,2.23-3.3,4.45-4.78,6.72M150.85,191.59c-1.67,1.61-3.46,3.14-4.99,4.86-.31.48-.76.9-1.09,1.37-.35.5-.56,1.05-.25,1.66,1.07.15,1.32-1.01,1.77-1.61.86-1.6,2.71-2.52,3.71-3.99.52-.78,1.19-1.51,1.7-2.3.2-.3.37-.63.49-.96l-.29-.08c-.35.35-.69.69-1.05,1.04M148.17,191.59c-1.52,1.14-3.03,2.32-4.38,3.58-.36.49-.83.9-.02,1.93.58-.02.75-.6,1.13-.91,1.33-1.8,3.42-2.92,4.95-4.61.16-.16.3-.33.44-.49.37-.4,1.13-.82,1.01-1.38l-.39-.08c-.9.64-1.83,1.29-2.74,1.96M143.03,191.58c-.54.41-.89,1.14-.54,2.2,1.64.79,2.24-1.17,3.42-2.19-.63-.51-1.78-.37-2.45-.25-.16.06-.3.14-.43.24M136.59,191.58c-.4.42-.59,1.04-.77,1.58.89.83,2.23.49,3.28.36.19-.15.35-.3.48-.46.31-.41.44-.91.26-1.48-.73-.58-1.78-.34-2.55-.4-.3.07-.54.21-.71.4M129.8,191.59c-.26.17-.48.42-.65.76-.07.39.04.87.33,1.14,1.57.43,3.78.63,5.18-.38.28-.39.55-.88.44-1.46l-.97-.35c-1.33.2-3.21-.46-4.33.29M161.84,185.35c-.26.7-.55,1.33-.52,2.06.61,1.04,1.89,1.76,2.79,2.6l6.81-.63c-.91-1.22-2-2.14-3.2-3.25-.31-.35-.66-.59-1.03-.77-.64-.32-1.33-.54-2.08-.57-.55-.2-.68-1.66-1.88-1.88-.18.54-.68,1.9-.9,2.44M152.02,185.36c.82,2.39,1.9,4.7,4.06,6.19,1.25.25,1.88-1.22,2.43-1.92,1.15-1.24,1.77-2.74,2.27-4.27.21-.54.37-1.09.53-1.64-.26-.26-.91-.26-.74-.8,1.25-1.35,1.22-2.93,1.64-4.61.39-.83-.21-1.82.27-2.6.25-.2.46.08.73.07.52-1.22,1.24-2.59,1.26-4-.8-2.21-1.9-4.36-2.21-6.68-.4-1.64-.22-3.16.04-4.64.07-.68.15-1.37.26-2.04.34-1.41.3-2.8.03-4.18-.06-.34-.14-.68-.22-1.01-.21-.47-.32-1.05-.54-1.52-.5-.85-1.22-2.08-2.37-1.94-.96.32-1.11,1.39-1.16,2.26-.11.78-.37,1.53-.77,2.21-.79,1.31-2.07,2.32-3.58,2.76-1.04.62-2.79-.08-3.43,1.09.22.79.26,1.59.19,2.38-.41,4.05-1.46,7.83-2.79,11.51.29,1.2.47,2.6.94,3.81.18-.02.33-.12.46-.26.2-.06.62-.2.74.13-.22,1.69-.02,3.54.87,4.94.3.87,1.48,1.58,1.75,2.41-.25.79-.84-.08-1.19.07v.47c.16.62.34,1.24.55,1.84M148.22,185.35c-2.19,1.12-4.61,1.76-6.25,4.7,1.84.31,4.14-.06,6.16.06,1.14-.33,1.87-1.51,2.91-1.93.37-.5.44-1.08.33-1.66-.18-.32-.28-.75-.4-1.16l-.22-.69-.91-.72c-.32.31-1.26,1.19-1.62,1.4M183.82,191.6l.18.27c-.07.68-.15,1.36-.51,1.85-1.01,1.48-3.07.3-4.08,1.5-.67.4-1.52.82-2.21.46-.59-.36-1.01-1.31-1.75-.8-.65.69-1.61,1.11-2.48.86-.59-.55-1.1-1.21-1.96-.99-.22,1.36.48,2.18.83,3.07.75,1.05,1.45,2.01,1.6,3.11.02.19.03.38.03.58-.95.51-2.09.84-2.33,2-.77.22-1.63.16-1.99.94-.26.59-.25,1.17-.81,1.67-.76.12-1.45-.14-2.12.07-.56.4-.62,1.47-1.49,1.21-.59-.27-1.27-.43-1.94-.22-.75.42-.81,1.48-1.56,1.99l-2.44-1.06c-1.25.14-1.56,2.18-2.93,1.65-.9-.54-1.13-1.89-2.38-1.94l-2,.65c-.59-.46-.91-1.32-1.77-1.29-.59.02-1.25.24-1.83.16-.79-.55-.93-1.7-1.8-1.85-.77-.16-1.91.26-2.32-.68-.07-1.64-2.35-.88-2.6-2.32.14-.87-.59-1.15-1.1-1.57-.35-.26-.61-.59-.44-1.17.28-.66.59-1.3.93-1.93.53-.95,1.12-1.85,1.79-2.69-1.85-.31-2.39.57-3.45.41-.96.04-1.89-1.57-2.7-.18-1.04.52-1.94-.41-2.91-.67-1.93.07-4.32.54-5.24-1.34-.24-.62-.12-1.24.17-1.76.12-.21.25-.4.4-.58,1.87-1.6,5.01.12,6.88-1.59,2.09-.66,4.35.7,5.92-1.09,1.07-1.05,2.26-2,3.39-2.97,1.85-1.45,2.62-3.05,2.93-5.45.89-.95.06-2.17-.07-3.21-.68-1.37-.46-3.08-1.27-4.41-.68.15-.73,1.05-.87,1.67.12,2.31-.18,4.61-2,5.94-1.09.27-2.16-1.11-3.14-.07-.65.26-1.15,1.25-1.94.74-.82-.62-1.58-2.19-2.74-1.54-.81.52-1.23,1.71-2.34,1.33-.81-.54-1.12-2.02-2.34-1.87-.56.3-1.12.8-1.8.6-.64-.49-1.23-1.14-1.6-1.87-1.24-.47-2.58.87-3.81.21-.6-.73-.62-1.76-1.41-2.34-1.12-.06-2.81.78-3.48-.47-.21-.67-.02-1.66-.93-1.87-1.76,0-3.68.91-5.28-.07.27-1.32.77-2.56,1.21-3.81-.98-.62-2.27.08-3.35-.34-.67-.12-1.39-.27-1.8-.87-.05-1.48.82-2.58,1.08-3.94l-.28-.2c-1.75.16-3.69.12-5.27-.73-.68-.67-.02-1.73.38-2.37.4-.54.86-1.06.99-1.69-.52-.85-1.57-.62-2.26-1.17-.6-.55-2.22-.4-1.79-1.57.26-.71.72-1.27,1.21-1.79.67-.68,1.44-1.29,2.02-2.08-.54-1.43-2.28-1.94-3.3-3.25.16-.33.33-.63.5-.91.85-1.31,1.91-2.11,2.93-2.79.09-.1.12-.21.14-.32.02-.35-.26-.73-.48-1.01-.91-1.21-2.19-1.94-2.92-3.26,1.12-1.01,2.55-1.72,4.06-1.98-.24-1.38-.87-2.28-1.43-3.1-.3-.42-.57-.82-.75-1.24,1.99-.84,4.43-.07,6.31-1-1.04-2.08-2.22-3.1-3.24-4.61.16-.68.95-.22,1.43-.43,1.72-.26,3.38.44,5.02.49-1.52-2.06-3.22-3.92-3.21-6.24,3.77.44,6.35,2.56,9.1,4-.3-3.16-4.24-5.33-4.16-8.6,4.1,1.78,7.26,3.68,10.04,6.18-1.06-2.95-1.26-5.64-2.88-7.6-.72-1.23-.68-2.77-.73-4.11.86-.22,1.29.91,2.06,1.18,1.71,1.95,3.33,3.92,4.47,6.18,1.72-.16,1.29-1.29.88-2.24-.53-1.23-.77-2.37-.82-3.82-.74-1.9-.61-3.44-.11-5.39,2.14.59,2.21,2.13,2.92,3.26.74,1.8,1.1,3.9,1.66,5.81.41.76.06,1.54.75,1.99,1.34-.15.33-1.56.59-2.43,0-2.22.49-4.83.02-7.02-.47-2.2.43-4.25,1.92-5.66l.38.08c.35,1.62.71,3.54.58,5.17.42,1.15-.21,2.13.4,3.07,1.25.16,1.28-1.77,2.53-1.73.42.86.18,2.12.59,2.97.14,1.24.09,2.6-.04,3.95.12.87-.13,1.94-.19,2.89-.46,3.29-1.01,6.49-1.57,9.78-.73,1.6-.88,3.35-.75,5.12.16,2.37.82,4.76,1.29,6.9.49.78.91,1.6,1.26,2.45.4.99.71,2.03.91,3.12.09.54.16,1.09.21,1.66.87,1.79,2.47,2.9,3.23,4.57.16.35.29.74.35,1.16.4.56,1.16.54,1.75.41,1.77-1.31,2.77,2.02,4.44.42.61-.54,1.09-1.22,1.33-1.99.16-.53.22-1.1.16-1.71-.32-.96-.27-2.3-1.43-2.74l-.7-.43c-1.24-.77-2.46-1.57-3.56-2.59.55-.7,1.05-.23,1.53-.25,1.06.06,2.04.3,3.09.46-.47-.83-1.01-1.52-1.59-2.09-.8-.79-1.68-1.34-2.58-1.7.45-.59,1.52-.35,2.29-.28,1.91.54,3.77,1.17,5.56,1.99,1.81.83,3.55,1.84,5.17,3.11l.35.27c1.59,1.8,2.66,3.71,3.1,5.96.07.31.1.63.14.96.55,1.9,2.92.66,4.28,1.29.68-.76,1.33-1.51,1.92-2.24,1.6-1.99,2.8-3.96,3.2-6.23.06-.31.1-.63.12-.96l.39-2.15c.56-2.83,1.23-5.6,2.2-8.33l-.06-1.01c-.51-8.39-1.32-16.6-.8-24.94.75-.51.81.83,1.48,1.1,1.06-2.64.68-5.03,2.27-6.44,1.46.53,1.52,2.26,1.86,3.59-.2,2.41-.02,4.81.26,7.11,1.56-2.37,2.01-5.65,4.75-7.2.37,2.49.06,4.24.13,6.25-.24,1.26-1.16,2.25-1.5,3.52-.55.89-.5,2.23-.07,3.18.49.46.94-.42,1.21-.82,1.54-2.75,3.64-5.72,6.45-7.65,1.56.23,1.3,1.2,1.23,1.78-.15,1.26-1.07,2.26-1.23,3.42-1.67,1.5-2.37,3.26-3.27,5.12-.37.49-1.11,1.29-.59,2.04.95-.32,1.49-1.11,2.14-1.9,1.91-3.06,5.13-4.71,8.15-5.97.56,2.18-1.33,3.22-1.74,5.07-.79,2.04-2.56,3.75-4.44,4.78-.47.49-1.12,1.1-1.1,1.77.5.66,1.15-.14,1.63-.35,3.09-2.23,6.39-4.18,10.12-4.89,1.01,1.41-.21,2.22-1.05,2.93-1.41,1.01-3.01,2.22-4.1,3.71,1.01,1.02,1.93.12,2.88-.2,1.61-.92,3.91-1.1,5.65-.78-1.08,1.96-2.39,3.07-3.4,4.55.43,1.15,1.74.03,2.7.19,1.14.13,2.52.18,3.38,1.04.08.08.16.17.22.27-1.19,1.58-2.51,2.12-3.53,3.21,1.1,1.51,2.53,1.16,3.62,1.8.49.27,1.18.63,1.49,1.1-.98,1.22-2.43,1.87-3.21,2.97-.16.25-.31.51-.4.82.7.94,1.96.99,2.95,1.72.23.22.51.4.8.58.7.44,1.45.83,1.68,1.65-1.4.91-2.73,1.73-4.24,2.37-.57.31-.44.98-.06,1.25.34.35.71.66,1.07.96.6.49,1.18.95,1.62,1.54-.16.87-1.21,1.01-1.87,1.41-1.04.53-2.19.57-3.02,1.56.1.71.73,1.2,1.16,1.72.66.95.97,1.9.85,2.83l-.53.26-4.48.4-.19.26c.54,1.27,1.38,2.51,1.33,3.94-1.56.63-3.42.45-5.13.68l-.34.33-.33,3.07-.61.47c-1.22.57-3.81-.78-4.01,1.48-.3.48-.39,1.16-1.01,1.39-1.26.12-2.58-.82-3.8-.2-1.11.67-.68,3.11-2.54,2.27-.63-.32-1.57-.67-2.14-.34-.73.74-.62,2.54-1.99,2.27-.71-.24-1.16-1.05-2.02-.94-1.15.39-1.33,3.07-2.8,1.41-.57-.19-1.2-.79-1.8-.27-.67.4-1.17,1.39-2,1.2-.56-.53-.94-1.32-1.74-1.4-.89.22-1.37,1.17-2.41.8-2.44-1.38-2.34-4.41-3-6.82-.31-.21-.58-.54-1.01-.4l-.47.68c-.24,2.04-1.48,4-1.01,6.01,1.08,2.02,2.83,3.78,4.57,5.5,1.15,1.15,2.31,2.27,3.41,3.3,1.98,1.38,4.9-.27,6.7,1.58,1.75.12,3.97-.21,5.08,1.36M178.52,191.58c-.65.44-1.12,1.16-1.29,2.27,2.03.02,4.16.52,5.55-.98.1-.42.24-.86.07-1.29-1-.5-2.23-.36-3.3-.42-.37.08-.72.21-1.03.41M174.09,191.58c-.44.18-.88.42-1.34.71-.07.48.13.96.54,1.33.68.26,1.64.13,2.39-.18.38-.49,1.14-.82,1.1-1.58-.06-.1-.12-.19-.2-.26-.52-.51-1.43-.44-2.49,0M167.89,191.59l-1.61.16c1.28.63,2.22,2.9,4.02,1.97.44-.29.78-.82.47-2.13l-.07-.29-2.81.29ZM163.26,191.59c1.03,1.14,2.11,2.3,3.18,3.43l.33.35.36.37.42.43c.74.62,1.18,1.76,2.41,1.14-1.65-2.05-3.53-3.96-5.44-5.71-.78-.73-1.57-1.42-2.36-2.09l-.67.12,1.76,1.97ZM160.92,191.59c.11.12.19.23.27.35,1.24,2.19,3.02,3.89,4.94,5.88.79.83,1.6,1.71,2.41,2.71.28-.4.54-.8.43-1.37-.33-.49-.68-.93-1.05-1.35-1.01-1.13-2.1-2.11-3.07-3.4-.77-1.01-1.56-1.93-2.51-2.82-.66-.6-1.39-1.17-2.28-1.72-.2.72.41,1.21.87,1.72M162.97,197.82c.35.49.72.96,1.09,1.43.49.53.77,1.27,1.39,1.69.26.18.57.3,1,.35.02-.12.03-.22.04-.35.04-.97-.7-2.03-1.51-2.77l-.29-.33c-1.84-2.15-3.06-4.65-5.1-6.24l-.35-.25c.87,2.29,2.22,4.45,3.72,6.48M149.55,200.93c-.41.88,0,1.64,1.53,1.68.1-.58.22-1.14.39-1.69.26-.83.61-1.64,1.1-2.41l.17-.68c.54-2.07,1.43-4.04,1.6-6.21l-.49-.36-.14.33c-.87,2.04-1.97,4.09-2.99,6.13-.27,1.16-.83,2.17-1.17,3.22"/>
    <path class="cls-1" d="M197.65,234.79l3.8,3.3c.45.37,1.23,1.18,1.37,1.46.84,1.73-1.78,1.87-1.38,2.67.14.29.37.29.68.14,1.27-.62,2.45-1.28,3.68-1.88,1.25-.61,2.52-1.15,3.76-1.76.3-.16.51-.29.34-.63-.35-.71-1.38.95-3.11-.55l-13.95-11.84c-3.9-3.34-4.41-4.38-4.81-4.19-.41.19-.03.56,0,2.29.06,2.32-.5,2.51-.27,2.99.19.37,1.23.62,1.34.84.12.26.16,1.7,1.13,13.11.22,2.59.03,4.79-.44,5.88-.5,1.19-1.86,1.47-1.57,2.04.12.26.28.35.59.18,1.11-.54,2.08-1.09,3.1-1.59,2.11-1.03,2.88-1.33,3.54-1.64.35-.17.49-.25.31-.6-.36-.76-2.56,1.26-4.12-1.94-.46-.93-.51-2.05-.87-4.93l6.89-3.36ZM196.97,234.18l-6.27,3.05-.91-9.29,7.19,6.24Z"/>
    <path class="cls-1" d="M42.06,134.88c9.95-52.34,54.87-92.76,110.37-94.8,58.57-2.15,108.59,38.9,119.03,94.82l-10.7,2.08c-9.57-50.54-54.96-87.88-107.93-85.93-50.44,1.85-91.29,38.22-99.92,85.87l-10.84-2.05Z"/>
    <path class="cls-1" d="M271.51,178.44c-10,52.27-55.09,93.03-110.53,95.06-58.49,2.15-108.5-39.1-119.03-94.91l10.8-2.04c9.54,50.56,54.85,87.93,107.84,85.98,50.37-1.85,91.23-38.62,100.13-86.17l10.8,2.08Z"/>
    <path class="cls-1" d="M51.17,162.92l-10.97.53-.11-2.18,10.97-.52-.04-1.51-10.98.14-.03-2.18,10.98-.15.03,2.18.04,1.43.11,2.25ZM52.15,140.98l-10.84-1.75.35-2.16,10.84,1.76-.35,2.15ZM51.68,144.57l-10.89-1.38.26-2.17,10.89,1.38-.27,2.17ZM51.32,148.2l-10.93-1.01.2-2.17,10.94,1.01-.21,2.17ZM51.1,151.87l-10.97-.63.13-2.18,10.96.63-.12,2.18ZM50.99,155.55l-10.98-.25.05-2.18,10.98.24-.05,2.18ZM51.44,166.59l-10.95.91-.18-2.18,10.96-.91.17,2.18Z"/>
    <path class="cls-1" d="M262.34,164.42l10.94.91-.17,2.17-10.95-.91.18-2.17ZM273.4,163.45l-10.97-.53.1-2.18,10.97.53-.1,2.18ZM262.6,157.06l10.98.14-.02,2.18-10.98-.14.02-2.18ZM273.58,155.31l-10.98.24-.05-2.18,10.98-.24.05,2.18ZM273.45,151.24l-10.96.62-.12-2.18,10.97-.63.12,2.18ZM273.2,147.19l-10.94,1.01-.19-2.18,10.94-1.01.2,2.17ZM272.8,143.18l-10.9,1.38-.27-2.16,10.9-1.38.27,2.16ZM272.28,139.23l-10.84,1.76-.35-2.15,10.84-1.76.35,2.15Z"/>
  </g>
</svg>